<?xml version='1.0' encoding='UTF-8'?>
<svg viewBox="-2 -2 32 32" xmlns="http://www.w3.org/2000/svg" xmlns:xlink="http://www.w3.org/1999/xlink">
  <g id="Layer_1" transform="translate(-2, -2)" style="enable-background:new 0 0 32 32">
    <g id="FullExtent">
      <path d="M22, 8L18, 8L18, 12L14, 12L14, 8L10, 8L16, 2L22, 8zM8, 14L8, 10L2, 16L8, 22L8, 18L12, 18L12, 14L8, 14zM18, 24L18, 20L14, 20L14, 24L10, 24L16, 30L22, 24L18, 24zM30, 16L24, 10L24, 14L20, 14L20, 18L24, 18L24, 22L30, 16z" fill="#727272" class="Black" />
    </g>
  </g>
</svg>